<svg width="60" height="54" viewBox="0 0 60 54" fill="none" xmlns="http://www.w3.org/2000/svg">
<path d="M53.4434 6.2982C52.0814 4.93555 50.4643 3.85459 48.6844 3.11709C46.9045 2.37959 44.9967 2 43.0701 2C41.1435 2 39.2357 2.37959 37.4558 3.11709C35.6759 3.85459 34.0588 4.93555 32.6968 6.2982L29.8701 9.12487L27.0434 6.2982C24.2923 3.54702 20.5609 2.00143 16.6701 2.00143C12.7794 2.00143 9.04795 3.54702 6.29678 6.2982C3.5456 9.04938 2 12.7808 2 16.6715C2 20.5623 3.5456 24.2937 6.29678 27.0449L9.12344 29.8715L29.8701 50.6182L50.6168 29.8715L53.4434 27.0449C54.8061 25.6829 55.887 24.0657 56.6245 22.2858C57.362 20.5059 57.7416 18.5982 57.7416 16.6715C57.7416 14.7449 57.362 12.8371 56.6245 11.0573C55.887 9.27736 54.8061 7.66022 53.4434 6.2982Z" stroke="#993556" stroke-width="4"/>
</svg>
